<?xml version="1.0" encoding="UTF-8"?>
<svg width="32" height="32" version="1.1" viewBox="0 0 32 32" xmlns="http://www.w3.org/2000/svg">
 <g>
  <!-- 狼的身体 - 灰色 -->
  <path d="M6 20 L26 20 L24 12 L20 8 L12 8 L8 12 L6 20" fill="#808080"/>
  <!-- 狼的头部 - 深灰色 -->
  <path d="M12 8 L20 8 L22 4 L18 2 L14 2 L10 4 L12 8" fill="#606060"/>
  <!-- 狼的耳朵 -->
  <path d="M14 2 L16 0 L18 2" fill="#404040"/>
  <!-- 狼的腿 -->
  <path d="M10 20 L8 28 L12 28 L14 20" fill="#808080"/>
  <path d="M18 20 L20 28 L24 28 L22 20" fill="#808080"/>
  <!-- 狼的尾巴 -->
  <path d="M24 16 L28 14 L30 16 L28 18 L24 16" fill="#808080"/>
 </g>
</svg> 