<?xml version="1.0" encoding="UTF-8"?>
<svg width="320" height="80" version="1.1" viewBox="0 0 320 80" xmlns="http://www.w3.org/2000/svg">
  <defs>
    <linearGradient id="frameGradient" x1="0%" y1="0%" x2="0%" y2="100%">
      <stop offset="0%" style="stop-color:#f4e4bc"/>
      <stop offset="100%" style="stop-color:#e8d4a0"/>
    </linearGradient>
    <filter id="innerShadow" x="-20%" y="-20%" width="140%" height="140%">
      <feGaussianBlur in="SourceAlpha" stdDeviation="2"/>
      <feOffset dx="0" dy="1"/>
      <feComposite in2="SourceAlpha" operator="arithmetic" k2="-1" k3="1"/>
    </filter>
    <!-- 定义格子的阴影 -->
    <filter id="cellShadow" x="-10%" y="-10%" width="120%" height="120%">
      <feGaussianBlur in="SourceAlpha" stdDeviation="1"/>
    </filter>
  </defs>
  
  <!-- 主背景 -->
  <rect x="2" y="2" width="316" height="76" rx="10" 
        fill="url(#frameGradient)"/>
  
  <!-- 内阴影 -->
  <rect x="4" y="4" width="312" height="72" rx="8" 
        fill="none" stroke="#8b7355" stroke-width="2"
        filter="url(#innerShadow)"/>
        
  <!-- 格子分隔线 -->
  <g transform="translate(10,10)">
    <!-- 重复的格子，每个60x60 -->
    <rect x="0" y="0" width="60" height="60" rx="4"
          fill="#e8d4a0" stroke="#8b7355" stroke-width="2"/>
    <rect x="70" y="0" width="60" height="60" rx="4"
          fill="#e8d4a0" stroke="#8b7355" stroke-width="2"/>
    <rect x="140" y="0" width="60" height="60" rx="4"
          fill="#e8d4a0" stroke="#8b7355" stroke-width="2"/>
    <rect x="210" y="0" width="60" height="60" rx="4"
          fill="#e8d4a0" stroke="#8b7355" stroke-width="2"/>
  </g>
  
  <!-- 外边框 -->
  <rect x="2" y="2" width="316" height="76" rx="10" 
        fill="none" stroke="#654321" stroke-width="2"/>
        
  <!-- 装饰性边角 -->
  <path d="M 2,12 L 2,2 L 12,2" 
        fill="none" stroke="#8b7355" stroke-width="3"/>
  <path d="M 308,2 L 318,2 L 318,12" 
        fill="none" stroke="#8b7355" stroke-width="3"/>
  <path d="M 2,68 L 2,78 L 12,78" 
        fill="none" stroke="#8b7355" stroke-width="3"/>
  <path d="M 308,78 L 318,78 L 318,68" 
        fill="none" stroke="#8b7355" stroke-width="3"/>
</svg> 